<svg width="512" height="512" viewBox="0 0 512 512" fill="none" xmlns="http://www.w3.org/2000/svg">
<path d="M41.5594 212.48V38.32C41.5594 34.4 50.986 32.44 69.8394 32.44C88.8794 32.44 98.3994 34.4 98.3994 38.32V175.52H141.519C144.879 175.52 147.213 179.907 148.519 188.68C149.079 192.973 149.359 197.36 149.359 201.84C149.359 206.32 149.079 210.893 148.519 215.56C147.026 224.52 144.599 229 141.239 229H54.9994C50.8927 229 47.626 227.32 45.1994 223.96C42.7727 220.6 41.5594 216.773 41.5594 212.48ZM198.519 180.84V81.16H178.639C175.466 81.16 173.226 77.1467 171.919 69.12C171.359 65.2 171.079 61.1867 171.079 57.08C171.079 52.9733 171.359 48.96 171.919 45.04C173.226 37.0133 175.466 33 178.639 33H272.719C275.892 33 278.039 37.0133 279.159 45.04C279.906 48.96 280.279 52.9733 280.279 57.08C280.279 61.1867 279.906 65.2 279.159 69.12C278.039 77.1467 275.892 81.16 272.719 81.16H253.959V180.84H273.559C276.732 180.84 278.972 184.853 280.279 192.88C281.026 196.8 281.399 200.813 281.399 204.92C281.399 209.027 281.026 213.04 280.279 216.96C278.972 224.987 276.732 229 273.559 229H179.199C176.026 229 173.879 224.987 172.759 216.96C172.012 213.04 171.639 209.027 171.639 204.92C171.639 200.813 172.012 196.8 172.759 192.88C173.879 184.853 176.026 180.84 179.199 180.84H198.519ZM467.518 222.84C467.518 226.76 458.745 228.72 441.198 228.72C423.651 228.72 414.131 227.32 412.638 224.52L365.878 137.16V224.24C365.878 227.6 357.198 229.28 339.838 229.28C322.665 229.28 314.078 227.6 314.078 224.24V36.92C314.078 34.12 321.451 32.72 336.198 32.72C341.985 32.72 348.705 33.28 356.358 34.4C364.198 35.3333 368.958 37.2 370.638 40L415.438 126.24V38.32C415.438 34.7733 424.118 33 441.478 33C458.838 33 467.518 34.7733 467.518 38.32V222.84ZM142.764 420.48L143.324 382.4C143.324 379.787 146.031 378.107 151.444 377.36C156.857 376.427 161.337 375.96 164.884 375.96L175.804 376.8C182.897 377.92 186.444 379.88 186.444 382.68L185.324 470.32C181.591 472.933 174.031 475.547 162.644 478.16C151.444 480.587 138.564 481.8 124.004 481.8C96.9374 481.8 75.0974 473.027 58.4841 455.48C41.8707 437.933 33.5641 412.173 33.5641 378.2C33.5641 349.267 41.6841 325.747 57.9241 307.64C74.1641 289.533 96.6574 280.48 125.404 280.48C138.471 280.48 150.231 281.787 160.684 284.4C171.324 286.827 178.604 290.187 182.524 294.48C182.711 295.973 182.804 298.773 182.804 302.88C182.804 306.987 181.404 312.867 178.604 320.52C175.804 327.987 172.631 333.587 169.084 337.32C165.537 341.053 162.924 342.92 161.244 342.92C159.751 342.92 158.071 342.267 156.204 340.96C154.524 339.467 151.071 337.973 145.844 336.48C140.617 334.8 135.577 333.96 130.724 333.96C119.151 333.96 109.724 337.693 102.444 345.16C95.3507 352.627 91.8041 364.2 91.8041 379.88C91.8041 395.56 95.4441 407.507 102.724 415.72C110.191 423.747 118.684 427.76 128.204 427.76C137.911 427.76 142.764 425.333 142.764 420.48ZM224.27 462.48V288.32C224.27 284.4 233.697 282.44 252.55 282.44C271.59 282.44 281.11 284.4 281.11 288.32V425.52H324.23C327.59 425.52 329.924 429.907 331.23 438.68C331.79 442.973 332.07 447.36 332.07 451.84C332.07 456.32 331.79 460.893 331.23 465.56C329.737 474.52 327.31 479 323.95 479H237.71C233.604 479 230.337 477.32 227.91 473.96C225.484 470.6 224.27 466.773 224.27 462.48ZM453.75 360.84C457.297 360.84 459.07 367.373 459.07 380.44C459.07 384.36 458.603 389.027 457.67 394.44C456.923 399.667 455.43 402.28 453.19 402.28H417.63V430.28H469.15C472.323 430.28 474.47 434.387 475.59 442.6C476.15 446.147 476.43 449.973 476.43 454.08C476.43 458 475.87 463.133 474.75 469.48C473.63 475.827 471.763 479 469.15 479H373.39C366.297 479 362.75 476.107 362.75 470.32V290.28C362.75 285.427 364.897 283 369.19 283H469.43C473.35 283 475.31 291.307 475.31 307.92C475.31 324.347 473.35 332.56 469.43 332.56H417.63V360.84H453.75Z" fill="#5ABA80"/>
</svg>
